<svg xmlns="http://www.w3.org/2000/svg" width="140" height="46" viewBox="0 0 140 46" fill="none"><path d="M60.0568 14.4205H56.5881L62.733 31.875H66.6364L72.7898 14.4205H69.3125L64.7784 28.1591H64.5994L60.0568 14.4205ZM79.2564 32.1307C83.0916 32.1307 85.5291 29.429 85.5291 25.3807C85.5291 21.3239 83.0916 18.6136 79.2564 18.6136C75.4212 18.6136 72.9837 21.3239 72.9837 25.3807C72.9837 29.429 75.4212 32.1307 79.2564 32.1307ZM79.2734 29.6591C77.1513 29.6591 76.1115 27.767 76.1115 25.3722C76.1115 22.9773 77.1513 21.0597 79.2734 21.0597C81.3615 21.0597 82.4013 22.9773 82.4013 25.3722C82.4013 27.767 81.3615 29.6591 79.2734 29.6591ZM88.1477 31.875H91.233V18.7841H88.1477V31.875ZM89.6989 16.9261C90.679 16.9261 91.4801 16.1761 91.4801 15.2557C91.4801 14.3267 90.679 13.5767 89.6989 13.5767C88.7102 13.5767 87.9091 14.3267 87.9091 15.2557C87.9091 16.1761 88.7102 16.9261 89.6989 16.9261ZM100.942 18.7841H98.3601V15.6477H95.2749V18.7841H93.4169V21.1705H95.2749V28.4489C95.2578 30.9119 97.0476 32.1222 99.3658 32.054C100.244 32.0284 100.849 31.858 101.181 31.7472L100.661 29.3352C100.491 29.3778 100.141 29.4545 99.7578 29.4545C98.9822 29.4545 98.3601 29.1818 98.3601 27.9375V21.1705H100.942V18.7841ZM111.866 26.3693C111.866 28.3636 110.443 29.3523 109.08 29.3523C107.597 29.3523 106.608 28.304 106.608 26.642V18.7841H103.523V27.1193C103.523 30.2642 105.312 32.0455 107.886 32.0455C109.847 32.0455 111.227 31.0142 111.824 29.5483H111.96V31.875H114.952V18.7841H111.866V26.3693ZM118.124 31.875H121.21V24.179C121.21 22.517 122.462 21.3409 124.158 21.3409C124.678 21.3409 125.326 21.4347 125.59 21.5199V18.6818C125.309 18.6307 124.823 18.5966 124.482 18.5966C122.982 18.5966 121.729 19.4489 121.252 20.9659H121.116V18.7841H118.124V31.875ZM132.896 32.1307C135.947 32.1307 138.044 30.6392 138.589 28.3636L135.709 28.0398C135.291 29.1477 134.268 29.7273 132.939 29.7273C130.945 29.7273 129.624 28.4148 129.598 26.1733H138.717V25.2273C138.717 20.6335 135.956 18.6136 132.734 18.6136C128.984 18.6136 126.538 21.3665 126.538 25.4062C126.538 29.5142 128.95 32.1307 132.896 32.1307ZM129.607 24.0938C129.7 22.4233 130.936 21.017 132.777 21.017C134.55 21.017 135.743 22.3125 135.76 24.0938H129.607Z" fill="white"></path><circle cx="22.5" cy="23.375" r="22.5" fill="#4AAEE7"></circle><path d="M30.382 21.6678L28.2148 16.5949C28.0293 16.157 27.5988 15.875 27.1238 15.875H17.8762C17.4012 15.875 16.9744 16.157 16.7852 16.5949L14.618 21.6678C13.6643 22.1057 13 23.0705 13 24.1875V27.3529C13 28.0061 13.5344 28.5404 14.1875 28.5404H14.5846V30.5184C14.5846 31.1715 15.1189 31.7059 15.7721 31.7059H17.3566C18.0098 31.7059 18.5441 31.1715 18.5441 30.5184V28.5404H26.4596V30.5184C26.4596 31.1715 26.9939 31.7059 27.6471 31.7059H29.2316C29.8848 31.7059 30.4191 31.1715 30.4191 30.5184V28.5404H30.8125C31.4656 28.5404 32 28.0061 32 27.3529V24.1875C32 23.0705 31.3357 22.1057 30.382 21.6678ZM17.5125 16.9066C17.5756 16.7619 17.7166 16.6654 17.8762 16.6654H27.1238C27.2834 16.6654 27.4244 16.7582 27.4875 16.9029L29.4172 21.4191C29.3541 21.4154 29.291 21.4117 29.2316 21.4117H15.7721C15.709 21.4117 15.6459 21.4154 15.5865 21.4191L17.5125 16.9066ZM17.75 30.5184C17.75 30.7373 17.5719 30.9154 17.3529 30.9154H15.7721C15.5531 30.9154 15.375 30.7373 15.375 30.5184V28.5404H17.75V30.5184ZM29.2279 30.9154H27.6434C27.4244 30.9154 27.2463 30.7373 27.2463 30.5184V28.5404H29.6213V30.5184H29.625C29.625 30.7373 29.4469 30.9154 29.2279 30.9154ZM30.8125 27.75H30.0221H26.8566H18.1471H14.9779H14.1875C13.9686 27.75 13.7904 27.5719 13.7904 27.3529V24.1875C13.7904 23.0965 14.6773 22.2096 15.7684 22.2096H29.2279C30.3189 22.2096 31.2059 23.0965 31.2059 24.1875V27.3529H31.2096C31.2096 27.5719 31.0314 27.75 30.8125 27.75Z" fill="white" stroke="white"></path></svg>